<?xml version="1.0" encoding="iso-8859-1"?>
<!-- Generator: Adobe Illustrator 16.0.0, SVG Export Plug-In . SVG Version: 6.00 Build 0)  -->
<!DOCTYPE svg PUBLIC "-//W3C//DTD SVG 1.1//EN" "http://www.w3.org/Graphics/SVG/1.1/DTD/svg11.dtd">
<svg version="1.1" id="Capa_1" xmlns="http://www.w3.org/2000/svg" xmlns:xlink="http://www.w3.org/1999/xlink" x="0px" y="0px"
	 width="349.946px" height="349.946px" viewBox="0 0 349.946 349.946" style="enable-background:new 0 0 349.946 349.946;"
	 xml:space="preserve">
<g>
	<path d="M335.82,53.555c-20.195-29.988-61.199-40.392-94.859-31.212c-34.884,9.18-60.588,37.944-71.605,70.992
		c-8.568-28.152-27.54-55.692-56.304-63.036C69.6,18.671,28.596,51.719,12.072,89.663c-34.884,79.56,9.792,178.705,83.232,219.708
		c-6.732,0-12.852,0-19.584,0h-0.612c-1.224-0.612-2.448,0-3.06,1.224c-1.836,1.836-1.836,6.12,1.224,6.12
		c2.448,0.612,5.508,0.612,7.956,1.224c19.584,6.732,39.78,11.017,60.588,12.853c4.896,0.611,6.732-6.12,3.672-8.568
		c-7.344-7.956-14.688-16.523-21.42-25.092c-3.672-4.896-6.732-10.404-11.016-14.688c-0.612-1.836-1.836-3.06-2.448-4.896
		c-3.06-6.12-12.852-0.612-9.18,5.508c3.672,7.956,7.956,15.912,11.628,23.868c-58.14-36.72-106.488-95.472-100.98-168.913
		c3.06-42.228,28.152-89.964,74.664-95.472c50.184-6.12,63.648,40.392,77.112,77.724c2.448,4.284,11.017,4.284,10.404-1.836
		c0-2.448-0.612-4.896-1.224-7.956c14.076-34.272,37.332-66.708,75.888-74.664c52.632-11.016,91.188,32.436,83.844,83.232
		c-8.568,61.201-58.752,107.1-99.756,153c-1.836-4.284-1.836-10.404-1.836-15.3c0-3.673-6.12-4.896-6.732-1.225
		c-1.836,7.956-3.06,17.136,1.225,24.48c-3.061,3.672-6.12,7.344-9.181,10.403c0-0.611,0-1.836-0.611-3.06
		c-0.612-4.284-1.225-7.956-1.836-12.24c-0.612-3.672-6.732-2.448-6.12,0.612c0.611,5.508,0.611,11.016,1.224,17.136
		c0,1.836,0.612,3.672,1.224,4.896c-1.836,2.447-4.283,5.508-6.119,7.956c-3.673,5.508,4.283,11.016,8.567,6.731
		c3.061-3.06,6.12-5.508,9.181-8.568c1.224,0,1.836,0,3.06,0c6.12,0,12.24,1.225,18.36,0.612c7.956-0.612,7.956-12.24,0-12.852
		c-2.448,0-5.509,0-8.568,0c1.224-1.225,3.06-3.061,4.284-4.284c1.224,0,2.448,0,4.284,0c8.567,0.612,17.748,1.836,26.315-0.612
		c4.896-1.224,4.896-8.567,0-10.403c-6.12-1.836-12.852-1.225-18.972-0.612c29.376-30.6,56.916-64.872,77.112-99.145
		C348.061,141.683,361.524,91.499,335.82,53.555z"/>
</g>
<g>
</g>
<g>
</g>
<g>
</g>
<g>
</g>
<g>
</g>
<g>
</g>
<g>
</g>
<g>
</g>
<g>
</g>
<g>
</g>
<g>
</g>
<g>
</g>
<g>
</g>
<g>
</g>
<g>
</g>
</svg>
