<?xml version="1.0" encoding="iso-8859-1"?>
<!-- Generator: Adobe Illustrator 16.0.0, SVG Export Plug-In . SVG Version: 6.00 Build 0)  -->
<!DOCTYPE svg PUBLIC "-//W3C//DTD SVG 1.1//EN" "http://www.w3.org/Graphics/SVG/1.1/DTD/svg11.dtd">
<svg version="1.1" id="Capa_1" xmlns="http://www.w3.org/2000/svg" xmlns:xlink="http://www.w3.org/1999/xlink" x="0px" y="0px"
	 width="359.704px" height="359.705px" viewBox="0 0 359.704 359.705" style="enable-background:new 0 0 359.704 359.705;"
	 xml:space="preserve">
<g>
	<path d="M324.063,66.779c-43.452-26.928-113.832,12.852-148.104,40.392C87.22,51.479-51.092,174.491,19.288,266.903
		c34.272,45.288,102.816,42.84,146.268,14.076c12.24-7.956,25.704-20.196,36.107-34.884h0.612
		c50.796,8.567,115.668,6.12,145.044-43.452C368.739,167.147,363.231,91.259,324.063,66.779z M27.855,259.559
		c-29.376-39.168-14.688-93.024,20.808-122.4c34.272-28.152,79.56-37.332,121.176-23.256c-4.896,4.896-9.181,9.792-12.853,15.3
		c-0.612-0.612-1.224-1.224-2.448-1.224c-64.26-22.032-156.06,58.752-104.652,122.4c23.256,28.764,56.916,24.479,87.516,9.792
		c38.557-18.36,51.408-44.064,47.124-84.457l0,0c2.448-6.12,6.12-12.852,11.628-19.584c0.612,0,0.612,0.612,1.225,0.612
		c5.508,1.224,10.403,4.284,12.852,9.18C235.323,255.887,86.607,337.895,27.855,259.559z M166.779,219.167
		c-6.12,9.792-14.076,17.748-25.704,25.093c-26.316,15.912-59.976,26.315-82.008-1.836c-44.064-55.08,39.78-123.012,93.024-105.876
		C136.18,164.087,136.792,197.135,166.779,219.167z M216.352,159.803c-1.224-1.836-3.06-1.836-4.896-1.224
		c-1.836-4.284-5.508-7.344-9.18-9.792c27.54-31.212,77.725-59.976,106.488-25.704c21.42,25.704,17.136,62.424-11.628,79.56
		c-23.256,13.464-49.572,11.016-74.664,6.731c0,0,0,0-0.612,0C226.144,192.851,225.531,175.715,216.352,159.803z M333.855,205.091
		c-29.988,37.943-81.396,36.107-124.236,29.987c3.673-6.12,6.732-12.239,9.181-18.359l0.611,0.611
		c33.049,13.465,70.381,9.181,95.473-17.748c18.972-20.808,24.479-52.631,6.731-76.5c-18.972-25.704-50.796-29.376-78.336-16.524
		c-26.928,12.852-62.424,34.272-65.483,66.708l0,0c-0.612,0-0.612,0.612,0,1.224c0,1.224,0.611,1.836,1.224,2.448
		c-1.224,12.852-3.06,24.479-7.956,34.272c-37.332-37.333-7.956-83.232,30.6-107.101c31.824-19.584,91.801-52.632,126.072-20.808
		C357.111,111.455,357.724,175.103,333.855,205.091z"/>
</g>
<g>
</g>
<g>
</g>
<g>
</g>
<g>
</g>
<g>
</g>
<g>
</g>
<g>
</g>
<g>
</g>
<g>
</g>
<g>
</g>
<g>
</g>
<g>
</g>
<g>
</g>
<g>
</g>
<g>
</g>
</svg>
